<svg xmlns="http://www.w3.org/2000/svg" width="24" height="24" viewBox="0 0 24 24" fill="none">
  <path d="M19.3238 9.46826C19.3238 9.46826 18.7808 16.2033 18.4658 19.0403C18.3158 20.3953 17.4788 21.1893 16.1078 21.2143C13.4988 21.2613 10.8868 21.2643 8.27881 21.2093C6.95981 21.1823 6.13681 20.3783 5.98981 19.0473C5.67281 16.1853 5.13281 9.46826 5.13281 9.46826" stroke="white" stroke-width="1.5" stroke-linecap="round" stroke-linejoin="round"/>
  <path d="M20.708 6.23975H3.75" stroke="white" stroke-width="1.5" stroke-linecap="round" stroke-linejoin="round"/>
  <path d="M17.4406 6.23973C16.6556 6.23973 15.9796 5.68473 15.8256 4.91573L15.5826 3.69973C15.4326 3.13873 14.9246 2.75073 14.3456 2.75073H10.1126C9.53358 2.75073 9.02558 3.13873 8.87558 3.69973L8.63258 4.91573C8.47858 5.68473 7.80258 6.23973 7.01758 6.23973" stroke="white" stroke-width="1.5" stroke-linecap="round" stroke-linejoin="round"/>
</svg>