<svg width="104" height="104" viewBox="0 0 104 104" fill="none" xmlns="http://www.w3.org/2000/svg">
<path d="M38.086 46.2363C16.1233 46.936 0 49.2515 0 52C0 54.7485 16.1233 57.064 38.086 57.7637C23.0506 73.788 13.287 86.8263 15.2306 88.7694C17.1737 90.713 30.212 80.9494 46.2363 65.9144C46.936 87.8767 49.2515 104 52 104C54.7485 104 57.064 87.8767 57.7637 65.914C73.7881 80.9494 86.8261 90.713 88.7695 88.7694C90.713 86.8263 80.9495 73.788 65.9145 57.7637C87.8769 57.064 104 54.7485 104 52C104 49.2515 87.8769 46.936 65.9145 46.2363C80.9495 30.2119 90.713 17.1739 88.7696 15.2305C86.8261 13.287 73.7881 23.0506 57.7637 38.0858C57.064 16.1231 54.7485 0 52 0C49.2515 0 46.936 16.1231 46.2363 38.0855C30.212 23.0505 17.1737 13.287 15.2306 15.2304C13.287 17.1739 23.0506 30.2119 38.086 46.2363Z" fill="#FFCA0E"/>
</svg>
