<svg xmlns="http://www.w3.org/2000/svg" width="80" height="106" viewBox="0 0 80 106" fill="none">
  <path fill-rule="evenodd" clip-rule="evenodd" d="M13.6827 15.1618C20.9506 8.43235 29.6637 4.03329 37.2523 4.87947C38.6245 5.03248 40.1997 4.41089 40.3527 3.03869C40.5057 1.66648 39.8321 1.0902 38.4599 0.937193C29.124 -0.103825 19.4817 3.54871 11.3952 11.0363C3.22608 18.6003 -2.39276 31.6418 2.15481 44.0985C5.91228 54.391 13.2322 58.3354 21.6804 60.6377C18.7801 70.0384 21.3743 83.1644 29.71 91.6034C34.6026 96.5567 52.4829 106.112 67.627 94.1829C68.8053 93.2547 66.9284 91.196 65.6573 91.7351C59.4224 94.3789 44.3563 98.6987 32.4717 86.6668C25.5651 79.6746 23.9381 69.7885 26.6132 61.6224C28.2295 62.4863 29.2282 62.5385 32.2084 62.7901C44.0672 62.9798 56.3078 58.4949 62.3747 52.7573C65.3163 49.9755 66.2653 46.0678 66.5411 42.9925C66.822 39.8588 65.6016 37.0289 63.3012 35.053C58.7792 31.1688 50.8104 30.9608 42.3497 35.5563C34.6431 39.7422 26.5642 47.0183 22.5774 55.6816C15.1656 53.7987 9.39339 50.9101 6.25386 42.3103C3.27235 34.1433 6.49747 21.8149 13.6827 15.1618ZM27.5275 56.7651C31.1503 49.6111 38.3216 43.4341 44.7362 39.95C52.2507 35.8684 57.1891 37.1075 59.495 39.0882C60.6085 40.0446 61.1451 41.3122 61.0128 42.7882C60.8752 44.3226 59.9787 46.352 57.6527 48.5517C52.7369 53.2006 42.4118 57.1493 31.5502 56.9756C30.5637 56.9598 28.4977 56.8543 27.5275 56.7651ZM61.4788 85.2549C61.0744 86.5751 61.6245 87.5779 62.9447 87.9823L74.0276 92.0677L68.2126 102.13C67.4979 103.311 67.8731 104.463 69.0545 105.178C70.2358 105.893 71.9134 105.044 72.6281 103.863L79.2337 92.4455C79.6326 91.7861 79.7052 90.9796 79.4303 90.2597C79.1554 89.5397 78.5638 88.9868 77.827 88.761L66.1051 84.9963C64.7849 84.5919 61.8832 83.9348 61.4788 85.2549Z" fill="#FFCA0E"/>
</svg>