<svg width="190" height="27" viewBox="0 0 190 27" fill="none" xmlns="http://www.w3.org/2000/svg">
<path d="M90.3969 23.123C90.0971 22.8724 89.4572 22.9122 89.1747 22.9634C88.3179 22.9634 87.3034 22.8861 84.5363 22.8861H59.9046C57.1467 22.8861 41.2888 23.0132 39.5288 23.0132C37.7688 23.0132 28.3883 22.9769 25.5216 23.0132C23.2282 23.0422 12.5661 22.8494 7.52167 22.7494C7.70927 22.548 8.15067 22.0608 8.41552 21.7231C8.74657 21.301 8.84589 20.9865 8.63898 20.7465C8.43207 20.5065 8.28494 20.3078 7.38925 21.4003C6.49355 22.4928 5.15462 22.8735 4.35181 22.8735H2.53929C3.46624 22.4349 4.8484 20.8789 4.81529 20.3409C4.78219 19.803 4.61666 19.4388 4.07042 20.134C3.52418 20.8292 2.08416 22.0624 0.776494 22.6004C-0.531174 23.1384 -0.100863 23.6763 1.42199 24.1564C2.94485 24.6364 3.46626 25.2985 4.25251 25.9772C5.03877 26.6558 5.21257 26.8131 5.39465 26.5317C5.57673 26.2503 5.48569 25.9441 5.01394 25.3399C4.63654 24.8565 3.9188 24.2666 3.60711 24.0321H6.48725C6.74933 24.1866 7.54 24.7705 8.606 25.8696C9.9385 27.2434 9.77297 25.9358 9.29294 25.2075C8.90892 24.6248 8.46093 24.1811 8.28494 24.0321C12.705 24.0394 22.6933 24.0496 27.2855 24.0321C33.0257 24.0102 56.705 23.9936 62.8599 24.0321C69.0147 24.0705 85.8948 24.0321 88.8983 24.0321C91.9018 24.0321 90.7716 23.4363 90.3969 23.123Z" fill="#FB8F2C"/>
<path fill-rule="evenodd" clip-rule="evenodd" d="M96.7223 21.439C102.311 18.6587 106.552 17.6196 108.574 17.3107C110.596 17.0018 110.047 15.9025 108.647 15.2919C107.247 14.6813 104.214 13.4564 98.4665 17.4964C99.4683 16.2182 101.512 14.7163 103.375 13.3472C104.58 12.4612 105.71 11.6308 106.433 10.9527C108.273 9.22666 108.557 8.88525 107.552 8.3352C106.546 7.78516 104.441 7.57651 100.06 11.5217C101.691 8.33521 102.089 6.95061 101.994 4.78835C101.9 2.62608 99.1114 3.04337 96.3611 9.54912C96.7025 5.33841 96.709 3.2124 95.6178 0.702799C94.5267 -1.80681 92.7654 3.00976 92.7498 5.65966C92.7374 7.77957 92.7446 9.48381 92.7498 10.0709C92.3289 9.00059 91.1006 6.40474 89.5543 4.5841C87.6214 2.30831 86.203 3.53973 87.1382 6.85989C87.8864 9.51602 89.1647 11.5829 89.7103 12.2844C88.853 11.5362 86.7206 9.74672 85.0496 8.57453C82.9609 7.1093 80.342 7.8575 81.0123 8.91746C81.3797 9.49852 83.2649 10.9555 85.2734 12.5079C86.9288 13.7873 88.668 15.1315 89.7103 16.1033C92.0172 18.2544 91.7678 18.4727 89.492 16.8516C87.2162 15.2304 84.3167 14.0925 81.0123 14.7005C77.7078 15.3084 78.7522 16.758 82.2126 17.4595C85.6731 18.1609 91.3625 20.3744 93.4356 21.7461C93.4905 21.7774 93.5451 21.8103 93.6003 21.8436C94.2038 22.2077 94.8777 22.6144 96.7223 21.439ZM105.937 9.54912C105.288 9.96715 100.897 13.6563 98.7822 15.4487C99.4591 14.2542 100.769 13.0145 102.451 11.4217C102.745 11.1438 103.05 10.8552 103.365 10.5542C105.485 8.52777 106.747 9.02657 105.937 9.54912ZM96.2414 15.8072C97.2334 13.973 99.3858 9.84024 100.06 7.9822C100.139 7.7632 100.217 7.54989 100.292 7.34526L100.293 7.3433L100.294 7.34089L100.295 7.33845L100.295 7.33719C101.014 5.37656 101.438 4.21891 99.8733 6.51697C98.1431 9.05775 96.3817 12.9702 96.2414 15.8072ZM95.275 5.86229C95.0007 9.39132 94.6411 12.6533 94.4956 13.8431C94.2566 11.8012 93.8752 7.075 94.2618 4.50616C94.745 1.29511 95.6178 1.45099 95.275 5.86229ZM93.1862 16.5866C93.0251 15.3396 92.3819 12.1347 91.0975 9.29156C89.492 5.73759 87.8553 3.71119 88.2761 5.53495C88.697 7.3587 90.0817 11.4756 93.1862 16.5866ZM91.3001 16.4151C88.7812 14.4324 84.5143 10.8399 82.6958 9.29156C82.3766 9.02016 82.9919 9.15127 83.7557 9.41626C84.5195 9.68125 85.7354 10.1956 87.9176 12.1597C89.8647 13.912 90.2358 14.56 91.0018 15.8971C91.0943 16.0587 91.1926 16.2303 91.3001 16.4151ZM90.6057 19.2123C89.9908 18.67 88.223 17.3215 86.0709 16.2659C83.3808 14.9465 80.6906 15.7535 82.5353 16.2659C84.38 16.7783 88.3639 17.9569 90.6057 19.2123ZM106.311 16.3216C105.027 16.4962 101.484 17.9427 99.8733 18.6441C100.964 17.4283 102.944 16.3216 105.454 15.8072C107.963 15.2928 107.917 16.1033 106.311 16.3216Z" fill="#FB8F2C"/>
<path d="M99.5135 23.1231C100.263 22.8104 101.412 22.7167 101.694 22.7679H105.676C108.443 22.7679 127.248 22.8862 130.006 22.8862C132.764 22.8862 148.622 23.0132 150.382 23.0132C152.142 23.0132 161.522 22.9769 164.389 23.0132C166.682 23.0422 177.609 22.8494 182.653 22.7494C182.466 22.548 182.024 22.0608 181.759 21.7231C181.428 21.301 181.329 20.9865 181.536 20.7465C181.743 20.5065 181.89 20.3079 182.786 21.4003C183.681 22.4928 183.977 22.8735 184.78 22.8735L186.452 22.8736C185.525 22.4349 184.106 20.7198 183.981 20.1954C183.845 19.6241 184.234 19.3609 184.78 20.0562C185.327 20.7514 186.338 22.0625 187.646 22.6005C188.953 23.1384 189.818 23.6714 188.801 24.3965C187.5 25.3232 187.238 25.7121 186.451 26.3908C185.665 27.0694 185.491 27.0776 185.309 26.7962C185.127 26.5148 184.954 26.2086 185.426 25.6044C185.803 25.1211 187.05 24.2667 187.361 24.0321H184.217C183.955 24.1867 183.852 24.3995 182.786 25.4986C181.453 26.8725 181.252 25.6118 181.732 24.8835C182.116 24.3008 182.243 24.1811 182.419 24.0321C177.999 24.0394 167.217 24.0496 162.625 24.0321C156.885 24.0102 133.205 23.9937 127.051 24.0321C120.896 24.0706 103.677 24.2982 100.674 24.2982C97.6706 24.2982 99.0627 23.3111 99.5135 23.1231Z" fill="#FB8F2C"/>
</svg>
