<svg width="254" height="251" viewBox="0 0 254 251" fill="none" xmlns="http://www.w3.org/2000/svg">
<path d="M125.864 1.50714C126.433 0.75212 127.567 0.752119 128.136 1.50713L153.41 35.0441C153.788 35.5454 154.449 35.7398 155.038 35.5223L194.432 20.9734C195.319 20.6458 196.272 21.2587 196.343 22.2015L199.473 64.0788C199.52 64.7048 199.972 65.2261 200.585 65.3615L241.59 74.4198C242.513 74.6237 242.984 75.6549 242.534 76.4861L222.527 113.408C222.228 113.96 222.326 114.643 222.768 115.088L252.367 144.878C253.033 145.548 252.872 146.67 252.044 147.126L215.251 167.37C214.701 167.673 214.415 168.3 214.546 168.914L223.341 209.977C223.539 210.901 222.796 211.758 221.853 211.694L179.957 208.832C179.33 208.79 178.75 209.163 178.529 209.75L163.727 249.049C163.394 249.934 162.306 250.253 161.547 249.689L127.849 224.631C127.345 224.256 126.655 224.256 126.151 224.631L92.4526 249.689C91.694 250.253 90.6063 249.934 90.273 249.049L75.4712 209.75C75.25 209.163 74.6697 208.79 74.0434 208.832L32.1469 211.694C31.2037 211.758 30.4613 210.901 30.6593 209.977L39.4539 168.914C39.5853 168.3 39.2988 167.673 38.7488 167.37L1.95629 147.126C1.12799 146.67 0.966655 145.548 1.63301 144.878L31.2318 115.088C31.6742 114.643 31.7724 113.96 31.4733 113.408L11.4662 76.4861C11.0158 75.6549 11.4867 74.6237 12.4099 74.4198L53.4154 65.3615C54.0284 65.2261 54.4801 64.7048 54.5269 64.0788L57.6573 22.2015C57.7278 21.2587 58.6814 20.6458 59.5683 20.9734L98.9616 35.5223C99.5505 35.7398 100.212 35.5454 100.59 35.0441L125.864 1.50714Z" fill="#66EAB3" stroke="#111114" stroke-width="1.42222"/>
</svg>
