<svg xmlns="http://www.w3.org/2000/svg" width="23" height="23" viewBox="0 0 108 23" fill="none">
  <path d="M9.55778 0.838171C9.74538 0.482597 10.2546 0.482596 10.4422 0.838169L12.9418 5.57567C13.0141 5.71279 13.146 5.8086 13.2987 5.83503L18.5768 6.74826C18.9729 6.8168 19.1303 7.30112 18.8501 7.58942L15.1168 11.4306C15.0088 11.5418 14.9584 11.6968 14.9805 11.8502L15.743 17.1521C15.8002 17.5501 15.3882 17.8494 15.0274 17.672L10.2206 15.3085C10.0815 15.2401 9.9185 15.2401 9.77938 15.3085L4.97258 17.672C4.6118 17.8494 4.19982 17.5501 4.25704 17.1521L5.01951 11.8502C5.04158 11.6968 4.99121 11.5418 4.88316 11.4306L1.14993 7.58942C0.86973 7.30112 1.02709 6.8168 1.42324 6.74826L6.70126 5.83503C6.85403 5.8086 6.98589 5.71279 7.05824 5.57567L9.55778 0.838171Z" fill="#FFCA0E"/>
  <path d="M32 1.07149L34.4995 5.80899C34.6442 6.08323 34.908 6.27484 35.2135 6.32771L40.4915 7.24094L36.7583 11.0821C36.5422 11.3045 36.4414 11.6145 36.4856 11.9214L37.248 17.2233L32.4412 14.8598C32.163 14.723 31.837 14.723 31.5588 14.8598L26.752 17.2233L27.5144 11.9214C27.5586 11.6145 27.4578 11.3045 27.2417 11.0821L23.5085 7.24094L28.7865 6.32771C29.092 6.27484 29.3558 6.08323 29.5005 5.80899L32 1.07149Z" stroke="#FFCA0E"/>
  <path d="M54 1.07149L56.4995 5.80899C56.6442 6.08323 56.908 6.27484 57.2135 6.32771L62.4915 7.24094L58.7583 11.0821C58.5422 11.3045 58.4414 11.6145 58.4856 11.9214L59.248 17.2233L54.4412 14.8598C54.163 14.723 53.837 14.723 53.5588 14.8598L48.752 17.2233L49.5144 11.9214C49.5586 11.6145 49.4578 11.3045 49.2417 11.0821L45.5085 7.24094L50.7865 6.32771C51.092 6.27484 51.3558 6.08323 51.5005 5.80899L54 1.07149Z" stroke="#FFCA0E"/>
  <path d="M76 1.07149L78.4995 5.80899C78.6442 6.08323 78.908 6.27484 79.2135 6.32771L84.4915 7.24094L80.7583 11.0821C80.5422 11.3045 80.4414 11.6145 80.4856 11.9214L81.248 17.2233L76.4412 14.8598C76.163 14.723 75.837 14.723 75.5588 14.8598L70.752 17.2233L71.5144 11.9214C71.5586 11.6145 71.4578 11.3045 71.2417 11.0821L67.5085 7.24094L72.7865 6.32771C73.092 6.27484 73.3558 6.08323 73.5005 5.80899L76 1.07149Z" stroke="#FFCA0E"/>
  <path d="M98 1.07149L100.5 5.80899C100.644 6.08323 100.908 6.27484 101.213 6.32771L106.492 7.24094L102.758 11.0821C102.542 11.3045 102.441 11.6145 102.486 11.9214L103.248 17.2233L98.4412 14.8598C98.163 14.723 97.837 14.723 97.5588 14.8598L92.752 17.2233L93.5144 11.9214C93.5586 11.6145 93.4578 11.3045 93.2417 11.0821L89.5085 7.24094L94.7865 6.32771C95.092 6.27484 95.3558 6.08323 95.5005 5.80899L98 1.07149Z" stroke="#FFCA0E"/>
</svg>