<svg xmlns="http://www.w3.org/2000/svg" width="23" height="23" viewBox="0 0 23 23" fill="none">
  <path d="M9.55778 0.838171C9.74538 0.482597 10.2546 0.482596 10.4422 0.838169L12.9418 5.57567C13.0141 5.71279 13.146 5.8086 13.2987 5.83503L18.5768 6.74826C18.9729 6.8168 19.1303 7.30112 18.8501 7.58942L15.1168 11.4306C15.0088 11.5418 14.9584 11.6968 14.9805 11.8502L15.743 17.1521C15.8002 17.5501 15.3882 17.8494 15.0274 17.672L10.2206 15.3085C10.0815 15.2401 9.9185 15.2401 9.77938 15.3085L4.97258 17.672C4.6118 17.8494 4.19982 17.5501 4.25704 17.1521L5.01951 11.8502C5.04158 11.6968 4.99121 11.5418 4.88316 11.4306L1.14993 7.58942C0.86973 7.30112 1.02709 6.8168 1.42324 6.74826L6.70126 5.83503C6.85403 5.8086 6.98589 5.71279 7.05824 5.57567L9.55778 0.838171Z" fill="#FFCA0E"/>
</svg>