<svg width="20" height="20" viewBox="0 0 20 20" fill="none" xmlns="http://www.w3.org/2000/svg">
<path d="M16.6673 6.66665H14.1673V3.33331H2.50065C1.58398 3.33331 0.833984 4.08331 0.833984 4.99998V14.1666H2.50065C2.50065 15.55 3.61732 16.6666 5.00065 16.6666C6.38399 16.6666 7.50065 15.55 7.50065 14.1666H12.5007C12.5007 15.55 13.6173 16.6666 15.0007 16.6666C16.384 16.6666 17.5007 15.55 17.5007 14.1666H19.1673V9.99998L16.6673 6.66665ZM5.00065 15.4166C4.30898 15.4166 3.75065 14.8583 3.75065 14.1666C3.75065 13.475 4.30898 12.9166 5.00065 12.9166C5.69232 12.9166 6.25065 13.475 6.25065 14.1666C6.25065 14.8583 5.69232 15.4166 5.00065 15.4166ZM16.2507 7.91665L17.884 9.99998H14.1673V7.91665H16.2507ZM15.0007 15.4166C14.309 15.4166 13.7507 14.8583 13.7507 14.1666C13.7507 13.475 14.309 12.9166 15.0007 12.9166C15.6923 12.9166 16.2507 13.475 16.2507 14.1666C16.2507 14.8583 15.6923 15.4166 15.0007 15.4166Z" fill="white"/>
</svg>
